<svg xmlns="http://www.w3.org/2000/svg" width="64" height="64" viewBox="0 0 64 64" fill="none" role="img" aria-label="Kanby">
  <defs>
    <linearGradient id="bg" x1="8" y1="6" x2="56" y2="58" gradientUnits="userSpaceOnUse">
      <stop offset="0" stop-color="#2DD4BF"/>
      <stop offset="0.52" stop-color="#34D399"/>
      <stop offset="1" stop-color="#FBBF24"/>
    </linearGradient>
    <linearGradient id="gloss" x1="16" y1="10" x2="44" y2="40" gradientUnits="userSpaceOnUse">
      <stop offset="0" stop-color="#FFFFFF" stop-opacity="0.32"/>
      <stop offset="1" stop-color="#FFFFFF" stop-opacity="0"/>
    </linearGradient>
  </defs>

  <!-- Background tile (matches Kanby Studio cozy gradient vibe) -->
  <rect x="4" y="4" width="56" height="56" rx="16" fill="url(#bg)"/>
  <rect x="4" y="4" width="56" height="56" rx="16" fill="#0F172A" opacity="0.16"/>
  <path d="M20 10h24c8.837 0 16 7.163 16 16v0c0 0-10-8-28-8S4 26 4 26v0c0-8.837 7.163-16 16-16Z" fill="url(#gloss)"/>

  <!-- Kanban glyph -->
  <g>
    <rect x="14" y="16" width="36" height="32" rx="10" fill="#FFFFFF" opacity="0.92"/>
    <rect x="14" y="16" width="36" height="32" rx="10" stroke="#0F172A" stroke-opacity="0.14"/>

    <!-- Column dividers -->
    <path d="M26.5 18.5v27" stroke="#0F172A" stroke-opacity="0.14" stroke-linecap="round"/>
    <path d="M37.5 18.5v27" stroke="#0F172A" stroke-opacity="0.14" stroke-linecap="round"/>

    <!-- Cards (simple, high-contrast at 16–32px) -->
    <rect x="17" y="21" width="7" height="6" rx="2" fill="#0F172A" opacity="0.55"/>
    <rect x="17" y="30" width="7" height="12" rx="2" fill="#0F172A" opacity="0.35"/>

    <rect x="28" y="21" width="7" height="10" rx="2" fill="#0F172A" opacity="0.42"/>
    <rect x="28" y="34" width="7" height="8" rx="2" fill="#0F172A" opacity="0.30"/>

    <rect x="39" y="21" width="8" height="7" rx="2" fill="#0F172A" opacity="0.50"/>
    <rect x="39" y="31" width="8" height="11" rx="2" fill="#0F172A" opacity="0.28"/>

    <!-- Subtle accent dot -->
    <circle cx="46.5" cy="44.5" r="2" fill="#0F766E" opacity="0.9"/>
  </g>
</svg>
